<?xml version="1.0" encoding="utf-8" standalone="no"?>
<!DOCTYPE svg PUBLIC "-//W3C//DTD SVG 1.1//EN"
  "http://www.w3.org/Graphics/SVG/1.1/DTD/svg11.dtd">
<svg xmlns:xlink="http://www.w3.org/1999/xlink" width="576pt" height="288pt" viewBox="0 0 576 288" xmlns="http://www.w3.org/2000/svg" version="1.1">
 <metadata>
  <rdf:RDF xmlns:dc="http://purl.org/dc/elements/1.1/" xmlns:cc="http://creativecommons.org/ns#" xmlns:rdf="http://www.w3.org/1999/02/22-rdf-syntax-ns#">
   <cc:Work>
    <dc:type rdf:resource="http://purl.org/dc/dcmitype/StillImage"/>
    <dc:date>2025-01-08T20:12:44.227256</dc:date>
    <dc:format>image/svg+xml</dc:format>
    <dc:creator>
     <cc:Agent>
      <dc:title>Matplotlib v3.10.0, https://matplotlib.org/</dc:title>
     </cc:Agent>
    </dc:creator>
   </cc:Work>
  </rdf:RDF>
 </metadata>
 <defs>
  <style type="text/css">*{stroke-linejoin: round; stroke-linecap: butt}</style>
 </defs>
 <g id="figure_1">
  <g id="patch_1">
   <path d="M 0 288 
L 576 288 
L 576 0 
L 0 0 
z
" style="fill: #ffffff"/>
  </g>
  <g id="axes_1">
   <g id="patch_2">
    <path d="M 52.94 246.04 
L 552.555185 246.04 
L 552.555185 26.88 
L 52.94 26.88 
z
" style="fill: #ffffff"/>
   </g>
   <g id="matplotlib.axis_1">
    <g id="xtick_1">
     <g id="line2d_1">
      <path d="M 59.673051 246.04 
L 59.673051 26.88 
" clip-path="url(#p1066670bb4)" style="fill: none; stroke: #b0b0b0; stroke-width: 0.8; stroke-linecap: square"/>
     </g>
     <g id="line2d_2">
      <defs>
       <path id="m8d41ba587e" d="M 0 0 
L 0 3.5 
" style="stroke: #000000; stroke-width: 0.8"/>
      </defs>
      <g>
       <use xlink:href="#m8d41ba587e" x="59.673051" y="246.04" style="stroke: #000000; stroke-width: 0.8"/>
      </g>
     </g>
     <g id="text_1">
      <!-- 2025-01 -->
      <g transform="translate(38.781644 260.638438) scale(0.1 -0.1)">
       <defs>
        <path id="DejaVuSans-32" d="M 1228 531 
L 3431 531 
L 3431 0 
L 469 0 
L 469 531 
Q 828 903 1448 1529 
Q 2069 2156 2228 2338 
Q 2531 2678 2651 2914 
Q 2772 3150 2772 3378 
Q 2772 3750 2511 3984 
Q 2250 4219 1831 4219 
Q 1534 4219 1204 4116 
Q 875 4013 500 3803 
L 500 4441 
Q 881 4594 1212 4672 
Q 1544 4750 1819 4750 
Q 2544 4750 2975 4387 
Q 3406 4025 3406 3419 
Q 3406 3131 3298 2873 
Q 3191 2616 2906 2266 
Q 2828 2175 2409 1742 
Q 1991 1309 1228 531 
z
" transform="scale(0.015625)"/>
        <path id="DejaVuSans-30" d="M 2034 4250 
Q 1547 4250 1301 3770 
Q 1056 3291 1056 2328 
Q 1056 1369 1301 889 
Q 1547 409 2034 409 
Q 2525 409 2770 889 
Q 3016 1369 3016 2328 
Q 3016 3291 2770 3770 
Q 2525 4250 2034 4250 
z
M 2034 4750 
Q 2819 4750 3233 4129 
Q 3647 3509 3647 2328 
Q 3647 1150 3233 529 
Q 2819 -91 2034 -91 
Q 1250 -91 836 529 
Q 422 1150 422 2328 
Q 422 3509 836 4129 
Q 1250 4750 2034 4750 
z
" transform="scale(0.015625)"/>
        <path id="DejaVuSans-35" d="M 691 4666 
L 3169 4666 
L 3169 4134 
L 1269 4134 
L 1269 2991 
Q 1406 3038 1543 3061 
Q 1681 3084 1819 3084 
Q 2600 3084 3056 2656 
Q 3513 2228 3513 1497 
Q 3513 744 3044 326 
Q 2575 -91 1722 -91 
Q 1428 -91 1123 -41 
Q 819 9 494 109 
L 494 744 
Q 775 591 1075 516 
Q 1375 441 1709 441 
Q 2250 441 2565 725 
Q 2881 1009 2881 1497 
Q 2881 1984 2565 2268 
Q 2250 2553 1709 2553 
Q 1456 2553 1204 2497 
Q 953 2441 691 2322 
L 691 4666 
z
" transform="scale(0.015625)"/>
        <path id="DejaVuSans-2d" d="M 313 2009 
L 1997 2009 
L 1997 1497 
L 313 1497 
L 313 2009 
z
" transform="scale(0.015625)"/>
        <path id="DejaVuSans-31" d="M 794 531 
L 1825 531 
L 1825 4091 
L 703 3866 
L 703 4441 
L 1819 4666 
L 2450 4666 
L 2450 531 
L 3481 531 
L 3481 0 
L 794 0 
L 794 531 
z
" transform="scale(0.015625)"/>
       </defs>
       <use xlink:href="#DejaVuSans-32"/>
       <use xlink:href="#DejaVuSans-30" transform="translate(63.623047 0)"/>
       <use xlink:href="#DejaVuSans-32" transform="translate(127.246094 0)"/>
       <use xlink:href="#DejaVuSans-35" transform="translate(190.869141 0)"/>
       <use xlink:href="#DejaVuSans-2d" transform="translate(254.492188 0)"/>
       <use xlink:href="#DejaVuSans-30" transform="translate(290.576172 0)"/>
       <use xlink:href="#DejaVuSans-31" transform="translate(354.199219 0)"/>
      </g>
     </g>
    </g>
    <g id="xtick_2">
     <g id="line2d_3">
      <path d="M 130.427143 246.04 
L 130.427143 26.88 
" clip-path="url(#p1066670bb4)" style="fill: none; stroke: #b0b0b0; stroke-width: 0.8; stroke-linecap: square"/>
     </g>
     <g id="line2d_4">
      <g>
       <use xlink:href="#m8d41ba587e" x="130.427143" y="246.04" style="stroke: #000000; stroke-width: 0.8"/>
      </g>
     </g>
     <g id="text_2">
      <!-- 2025-02 -->
      <g transform="translate(109.535736 260.638438) scale(0.1 -0.1)">
       <use xlink:href="#DejaVuSans-32"/>
       <use xlink:href="#DejaVuSans-30" transform="translate(63.623047 0)"/>
       <use xlink:href="#DejaVuSans-32" transform="translate(127.246094 0)"/>
       <use xlink:href="#DejaVuSans-35" transform="translate(190.869141 0)"/>
       <use xlink:href="#DejaVuSans-2d" transform="translate(254.492188 0)"/>
       <use xlink:href="#DejaVuSans-30" transform="translate(290.576172 0)"/>
       <use xlink:href="#DejaVuSans-32" transform="translate(354.199219 0)"/>
      </g>
     </g>
    </g>
    <g id="xtick_3">
     <g id="line2d_5">
      <path d="M 194.334064 246.04 
L 194.334064 26.88 
" clip-path="url(#p1066670bb4)" style="fill: none; stroke: #b0b0b0; stroke-width: 0.8; stroke-linecap: square"/>
     </g>
     <g id="line2d_6">
      <g>
       <use xlink:href="#m8d41ba587e" x="194.334064" y="246.04" style="stroke: #000000; stroke-width: 0.8"/>
      </g>
     </g>
     <g id="text_3">
      <!-- 2025-03 -->
      <g transform="translate(173.442658 260.638438) scale(0.1 -0.1)">
       <defs>
        <path id="DejaVuSans-33" d="M 2597 2516 
Q 3050 2419 3304 2112 
Q 3559 1806 3559 1356 
Q 3559 666 3084 287 
Q 2609 -91 1734 -91 
Q 1441 -91 1130 -33 
Q 819 25 488 141 
L 488 750 
Q 750 597 1062 519 
Q 1375 441 1716 441 
Q 2309 441 2620 675 
Q 2931 909 2931 1356 
Q 2931 1769 2642 2001 
Q 2353 2234 1838 2234 
L 1294 2234 
L 1294 2753 
L 1863 2753 
Q 2328 2753 2575 2939 
Q 2822 3125 2822 3475 
Q 2822 3834 2567 4026 
Q 2313 4219 1838 4219 
Q 1578 4219 1281 4162 
Q 984 4106 628 3988 
L 628 4550 
Q 988 4650 1302 4700 
Q 1616 4750 1894 4750 
Q 2613 4750 3031 4423 
Q 3450 4097 3450 3541 
Q 3450 3153 3228 2886 
Q 3006 2619 2597 2516 
z
" transform="scale(0.015625)"/>
       </defs>
       <use xlink:href="#DejaVuSans-32"/>
       <use xlink:href="#DejaVuSans-30" transform="translate(63.623047 0)"/>
       <use xlink:href="#DejaVuSans-32" transform="translate(127.246094 0)"/>
       <use xlink:href="#DejaVuSans-35" transform="translate(190.869141 0)"/>
       <use xlink:href="#DejaVuSans-2d" transform="translate(254.492188 0)"/>
       <use xlink:href="#DejaVuSans-30" transform="translate(290.576172 0)"/>
       <use xlink:href="#DejaVuSans-33" transform="translate(354.199219 0)"/>
      </g>
     </g>
    </g>
    <g id="xtick_4">
     <g id="line2d_7">
      <path d="M 265.088156 246.04 
L 265.088156 26.88 
" clip-path="url(#p1066670bb4)" style="fill: none; stroke: #b0b0b0; stroke-width: 0.8; stroke-linecap: square"/>
     </g>
     <g id="line2d_8">
      <g>
       <use xlink:href="#m8d41ba587e" x="265.088156" y="246.04" style="stroke: #000000; stroke-width: 0.8"/>
      </g>
     </g>
     <g id="text_4">
      <!-- 2025-04 -->
      <g transform="translate(244.19675 260.638438) scale(0.1 -0.1)">
       <defs>
        <path id="DejaVuSans-34" d="M 2419 4116 
L 825 1625 
L 2419 1625 
L 2419 4116 
z
M 2253 4666 
L 3047 4666 
L 3047 1625 
L 3713 1625 
L 3713 1100 
L 3047 1100 
L 3047 0 
L 2419 0 
L 2419 1100 
L 313 1100 
L 313 1709 
L 2253 4666 
z
" transform="scale(0.015625)"/>
       </defs>
       <use xlink:href="#DejaVuSans-32"/>
       <use xlink:href="#DejaVuSans-30" transform="translate(63.623047 0)"/>
       <use xlink:href="#DejaVuSans-32" transform="translate(127.246094 0)"/>
       <use xlink:href="#DejaVuSans-35" transform="translate(190.869141 0)"/>
       <use xlink:href="#DejaVuSans-2d" transform="translate(254.492188 0)"/>
       <use xlink:href="#DejaVuSans-30" transform="translate(290.576172 0)"/>
       <use xlink:href="#DejaVuSans-34" transform="translate(354.199219 0)"/>
      </g>
     </g>
    </g>
    <g id="xtick_5">
     <g id="line2d_9">
      <path d="M 333.559858 246.04 
L 333.559858 26.88 
" clip-path="url(#p1066670bb4)" style="fill: none; stroke: #b0b0b0; stroke-width: 0.8; stroke-linecap: square"/>
     </g>
     <g id="line2d_10">
      <g>
       <use xlink:href="#m8d41ba587e" x="333.559858" y="246.04" style="stroke: #000000; stroke-width: 0.8"/>
      </g>
     </g>
     <g id="text_5">
      <!-- 2025-05 -->
      <g transform="translate(312.668452 260.638438) scale(0.1 -0.1)">
       <use xlink:href="#DejaVuSans-32"/>
       <use xlink:href="#DejaVuSans-30" transform="translate(63.623047 0)"/>
       <use xlink:href="#DejaVuSans-32" transform="translate(127.246094 0)"/>
       <use xlink:href="#DejaVuSans-35" transform="translate(190.869141 0)"/>
       <use xlink:href="#DejaVuSans-2d" transform="translate(254.492188 0)"/>
       <use xlink:href="#DejaVuSans-30" transform="translate(290.576172 0)"/>
       <use xlink:href="#DejaVuSans-35" transform="translate(354.199219 0)"/>
      </g>
     </g>
    </g>
    <g id="xtick_6">
     <g id="line2d_11">
      <path d="M 404.31395 246.04 
L 404.31395 26.88 
" clip-path="url(#p1066670bb4)" style="fill: none; stroke: #b0b0b0; stroke-width: 0.8; stroke-linecap: square"/>
     </g>
     <g id="line2d_12">
      <g>
       <use xlink:href="#m8d41ba587e" x="404.31395" y="246.04" style="stroke: #000000; stroke-width: 0.8"/>
      </g>
     </g>
     <g id="text_6">
      <!-- 2025-06 -->
      <g transform="translate(383.422544 260.638438) scale(0.1 -0.1)">
       <defs>
        <path id="DejaVuSans-36" d="M 2113 2584 
Q 1688 2584 1439 2293 
Q 1191 2003 1191 1497 
Q 1191 994 1439 701 
Q 1688 409 2113 409 
Q 2538 409 2786 701 
Q 3034 994 3034 1497 
Q 3034 2003 2786 2293 
Q 2538 2584 2113 2584 
z
M 3366 4563 
L 3366 3988 
Q 3128 4100 2886 4159 
Q 2644 4219 2406 4219 
Q 1781 4219 1451 3797 
Q 1122 3375 1075 2522 
Q 1259 2794 1537 2939 
Q 1816 3084 2150 3084 
Q 2853 3084 3261 2657 
Q 3669 2231 3669 1497 
Q 3669 778 3244 343 
Q 2819 -91 2113 -91 
Q 1303 -91 875 529 
Q 447 1150 447 2328 
Q 447 3434 972 4092 
Q 1497 4750 2381 4750 
Q 2619 4750 2861 4703 
Q 3103 4656 3366 4563 
z
" transform="scale(0.015625)"/>
       </defs>
       <use xlink:href="#DejaVuSans-32"/>
       <use xlink:href="#DejaVuSans-30" transform="translate(63.623047 0)"/>
       <use xlink:href="#DejaVuSans-32" transform="translate(127.246094 0)"/>
       <use xlink:href="#DejaVuSans-35" transform="translate(190.869141 0)"/>
       <use xlink:href="#DejaVuSans-2d" transform="translate(254.492188 0)"/>
       <use xlink:href="#DejaVuSans-30" transform="translate(290.576172 0)"/>
       <use xlink:href="#DejaVuSans-36" transform="translate(354.199219 0)"/>
      </g>
     </g>
    </g>
    <g id="xtick_7">
     <g id="line2d_13">
      <path d="M 472.785652 246.04 
L 472.785652 26.88 
" clip-path="url(#p1066670bb4)" style="fill: none; stroke: #b0b0b0; stroke-width: 0.8; stroke-linecap: square"/>
     </g>
     <g id="line2d_14">
      <g>
       <use xlink:href="#m8d41ba587e" x="472.785652" y="246.04" style="stroke: #000000; stroke-width: 0.8"/>
      </g>
     </g>
     <g id="text_7">
      <!-- 2025-07 -->
      <g transform="translate(451.894246 260.638438) scale(0.1 -0.1)">
       <defs>
        <path id="DejaVuSans-37" d="M 525 4666 
L 3525 4666 
L 3525 4397 
L 1831 0 
L 1172 0 
L 2766 4134 
L 525 4134 
L 525 4666 
z
" transform="scale(0.015625)"/>
       </defs>
       <use xlink:href="#DejaVuSans-32"/>
       <use xlink:href="#DejaVuSans-30" transform="translate(63.623047 0)"/>
       <use xlink:href="#DejaVuSans-32" transform="translate(127.246094 0)"/>
       <use xlink:href="#DejaVuSans-35" transform="translate(190.869141 0)"/>
       <use xlink:href="#DejaVuSans-2d" transform="translate(254.492188 0)"/>
       <use xlink:href="#DejaVuSans-30" transform="translate(290.576172 0)"/>
       <use xlink:href="#DejaVuSans-37" transform="translate(354.199219 0)"/>
      </g>
     </g>
    </g>
    <g id="xtick_8">
     <g id="line2d_15">
      <path d="M 543.539744 246.04 
L 543.539744 26.88 
" clip-path="url(#p1066670bb4)" style="fill: none; stroke: #b0b0b0; stroke-width: 0.8; stroke-linecap: square"/>
     </g>
     <g id="line2d_16">
      <g>
       <use xlink:href="#m8d41ba587e" x="543.539744" y="246.04" style="stroke: #000000; stroke-width: 0.8"/>
      </g>
     </g>
     <g id="text_8">
      <!-- 2025-08 -->
      <g transform="translate(522.648338 260.638438) scale(0.1 -0.1)">
       <defs>
        <path id="DejaVuSans-38" d="M 2034 2216 
Q 1584 2216 1326 1975 
Q 1069 1734 1069 1313 
Q 1069 891 1326 650 
Q 1584 409 2034 409 
Q 2484 409 2743 651 
Q 3003 894 3003 1313 
Q 3003 1734 2745 1975 
Q 2488 2216 2034 2216 
z
M 1403 2484 
Q 997 2584 770 2862 
Q 544 3141 544 3541 
Q 544 4100 942 4425 
Q 1341 4750 2034 4750 
Q 2731 4750 3128 4425 
Q 3525 4100 3525 3541 
Q 3525 3141 3298 2862 
Q 3072 2584 2669 2484 
Q 3125 2378 3379 2068 
Q 3634 1759 3634 1313 
Q 3634 634 3220 271 
Q 2806 -91 2034 -91 
Q 1263 -91 848 271 
Q 434 634 434 1313 
Q 434 1759 690 2068 
Q 947 2378 1403 2484 
z
M 1172 3481 
Q 1172 3119 1398 2916 
Q 1625 2713 2034 2713 
Q 2441 2713 2670 2916 
Q 2900 3119 2900 3481 
Q 2900 3844 2670 4047 
Q 2441 4250 2034 4250 
Q 1625 4250 1398 4047 
Q 1172 3844 1172 3481 
z
" transform="scale(0.015625)"/>
       </defs>
       <use xlink:href="#DejaVuSans-32"/>
       <use xlink:href="#DejaVuSans-30" transform="translate(63.623047 0)"/>
       <use xlink:href="#DejaVuSans-32" transform="translate(127.246094 0)"/>
       <use xlink:href="#DejaVuSans-35" transform="translate(190.869141 0)"/>
       <use xlink:href="#DejaVuSans-2d" transform="translate(254.492188 0)"/>
       <use xlink:href="#DejaVuSans-30" transform="translate(290.576172 0)"/>
       <use xlink:href="#DejaVuSans-38" transform="translate(354.199219 0)"/>
      </g>
     </g>
    </g>
    <g id="text_9">
     <!-- Date -->
     <g transform="translate(290.796811 274.316562) scale(0.1 -0.1)">
      <defs>
       <path id="DejaVuSans-44" d="M 1259 4147 
L 1259 519 
L 2022 519 
Q 2988 519 3436 956 
Q 3884 1394 3884 2338 
Q 3884 3275 3436 3711 
Q 2988 4147 2022 4147 
L 1259 4147 
z
M 628 4666 
L 1925 4666 
Q 3281 4666 3915 4102 
Q 4550 3538 4550 2338 
Q 4550 1131 3912 565 
Q 3275 0 1925 0 
L 628 0 
L 628 4666 
z
" transform="scale(0.015625)"/>
       <path id="DejaVuSans-61" d="M 2194 1759 
Q 1497 1759 1228 1600 
Q 959 1441 959 1056 
Q 959 750 1161 570 
Q 1363 391 1709 391 
Q 2188 391 2477 730 
Q 2766 1069 2766 1631 
L 2766 1759 
L 2194 1759 
z
M 3341 1997 
L 3341 0 
L 2766 0 
L 2766 531 
Q 2569 213 2275 61 
Q 1981 -91 1556 -91 
Q 1019 -91 701 211 
Q 384 513 384 1019 
Q 384 1609 779 1909 
Q 1175 2209 1959 2209 
L 2766 2209 
L 2766 2266 
Q 2766 2663 2505 2880 
Q 2244 3097 1772 3097 
Q 1472 3097 1187 3025 
Q 903 2953 641 2809 
L 641 3341 
Q 956 3463 1253 3523 
Q 1550 3584 1831 3584 
Q 2591 3584 2966 3190 
Q 3341 2797 3341 1997 
z
" transform="scale(0.015625)"/>
       <path id="DejaVuSans-74" d="M 1172 4494 
L 1172 3500 
L 2356 3500 
L 2356 3053 
L 1172 3053 
L 1172 1153 
Q 1172 725 1289 603 
Q 1406 481 1766 481 
L 2356 481 
L 2356 0 
L 1766 0 
Q 1100 0 847 248 
Q 594 497 594 1153 
L 594 3053 
L 172 3053 
L 172 3500 
L 594 3500 
L 594 4494 
L 1172 4494 
z
" transform="scale(0.015625)"/>
       <path id="DejaVuSans-65" d="M 3597 1894 
L 3597 1613 
L 953 1613 
Q 991 1019 1311 708 
Q 1631 397 2203 397 
Q 2534 397 2845 478 
Q 3156 559 3463 722 
L 3463 178 
Q 3153 47 2828 -22 
Q 2503 -91 2169 -91 
Q 1331 -91 842 396 
Q 353 884 353 1716 
Q 353 2575 817 3079 
Q 1281 3584 2069 3584 
Q 2775 3584 3186 3129 
Q 3597 2675 3597 1894 
z
M 3022 2063 
Q 3016 2534 2758 2815 
Q 2500 3097 2075 3097 
Q 1594 3097 1305 2825 
Q 1016 2553 972 2059 
L 3022 2063 
z
" transform="scale(0.015625)"/>
      </defs>
      <use xlink:href="#DejaVuSans-44"/>
      <use xlink:href="#DejaVuSans-61" transform="translate(77.001953 0)"/>
      <use xlink:href="#DejaVuSans-74" transform="translate(138.28125 0)"/>
      <use xlink:href="#DejaVuSans-65" transform="translate(177.490234 0)"/>
     </g>
    </g>
   </g>
   <g id="matplotlib.axis_2">
    <g id="ytick_1">
     <g id="line2d_17">
      <path d="M 52.94 240.500697 
L 552.555185 240.500697 
" clip-path="url(#p1066670bb4)" style="fill: none; stroke: #b0b0b0; stroke-width: 0.8; stroke-linecap: square"/>
     </g>
     <g id="line2d_18">
      <defs>
       <path id="m2928809fa6" d="M 0 0 
L -3.5 0 
" style="stroke: #000000; stroke-width: 0.8"/>
      </defs>
      <g>
       <use xlink:href="#m2928809fa6" x="52.94" y="240.500697" style="stroke: #000000; stroke-width: 0.8"/>
      </g>
     </g>
     <g id="text_10">
      <!-- −30 -->
      <g transform="translate(24.835313 244.299916) scale(0.1 -0.1)">
       <defs>
        <path id="DejaVuSans-2212" d="M 678 2272 
L 4684 2272 
L 4684 1741 
L 678 1741 
L 678 2272 
z
" transform="scale(0.015625)"/>
       </defs>
       <use xlink:href="#DejaVuSans-2212"/>
       <use xlink:href="#DejaVuSans-33" transform="translate(83.789062 0)"/>
       <use xlink:href="#DejaVuSans-30" transform="translate(147.412109 0)"/>
      </g>
     </g>
    </g>
    <g id="ytick_2">
     <g id="line2d_19">
      <path d="M 52.94 213.634395 
L 552.555185 213.634395 
" clip-path="url(#p1066670bb4)" style="fill: none; stroke: #b0b0b0; stroke-width: 0.8; stroke-linecap: square"/>
     </g>
     <g id="line2d_20">
      <g>
       <use xlink:href="#m2928809fa6" x="52.94" y="213.634395" style="stroke: #000000; stroke-width: 0.8"/>
      </g>
     </g>
     <g id="text_11">
      <!-- −25 -->
      <g transform="translate(24.835313 217.433614) scale(0.1 -0.1)">
       <use xlink:href="#DejaVuSans-2212"/>
       <use xlink:href="#DejaVuSans-32" transform="translate(83.789062 0)"/>
       <use xlink:href="#DejaVuSans-35" transform="translate(147.412109 0)"/>
      </g>
     </g>
    </g>
    <g id="ytick_3">
     <g id="line2d_21">
      <path d="M 52.94 186.768093 
L 552.555185 186.768093 
" clip-path="url(#p1066670bb4)" style="fill: none; stroke: #b0b0b0; stroke-width: 0.8; stroke-linecap: square"/>
     </g>
     <g id="line2d_22">
      <g>
       <use xlink:href="#m2928809fa6" x="52.94" y="186.768093" style="stroke: #000000; stroke-width: 0.8"/>
      </g>
     </g>
     <g id="text_12">
      <!-- −20 -->
      <g transform="translate(24.835313 190.567312) scale(0.1 -0.1)">
       <use xlink:href="#DejaVuSans-2212"/>
       <use xlink:href="#DejaVuSans-32" transform="translate(83.789062 0)"/>
       <use xlink:href="#DejaVuSans-30" transform="translate(147.412109 0)"/>
      </g>
     </g>
    </g>
    <g id="ytick_4">
     <g id="line2d_23">
      <path d="M 52.94 159.901791 
L 552.555185 159.901791 
" clip-path="url(#p1066670bb4)" style="fill: none; stroke: #b0b0b0; stroke-width: 0.8; stroke-linecap: square"/>
     </g>
     <g id="line2d_24">
      <g>
       <use xlink:href="#m2928809fa6" x="52.94" y="159.901791" style="stroke: #000000; stroke-width: 0.8"/>
      </g>
     </g>
     <g id="text_13">
      <!-- −15 -->
      <g transform="translate(24.835313 163.70101) scale(0.1 -0.1)">
       <use xlink:href="#DejaVuSans-2212"/>
       <use xlink:href="#DejaVuSans-31" transform="translate(83.789062 0)"/>
       <use xlink:href="#DejaVuSans-35" transform="translate(147.412109 0)"/>
      </g>
     </g>
    </g>
    <g id="ytick_5">
     <g id="line2d_25">
      <path d="M 52.94 133.035489 
L 552.555185 133.035489 
" clip-path="url(#p1066670bb4)" style="fill: none; stroke: #b0b0b0; stroke-width: 0.8; stroke-linecap: square"/>
     </g>
     <g id="line2d_26">
      <g>
       <use xlink:href="#m2928809fa6" x="52.94" y="133.035489" style="stroke: #000000; stroke-width: 0.8"/>
      </g>
     </g>
     <g id="text_14">
      <!-- −10 -->
      <g transform="translate(24.835313 136.834708) scale(0.1 -0.1)">
       <use xlink:href="#DejaVuSans-2212"/>
       <use xlink:href="#DejaVuSans-31" transform="translate(83.789062 0)"/>
       <use xlink:href="#DejaVuSans-30" transform="translate(147.412109 0)"/>
      </g>
     </g>
    </g>
    <g id="ytick_6">
     <g id="line2d_27">
      <path d="M 52.94 106.169187 
L 552.555185 106.169187 
" clip-path="url(#p1066670bb4)" style="fill: none; stroke: #b0b0b0; stroke-width: 0.8; stroke-linecap: square"/>
     </g>
     <g id="line2d_28">
      <g>
       <use xlink:href="#m2928809fa6" x="52.94" y="106.169187" style="stroke: #000000; stroke-width: 0.8"/>
      </g>
     </g>
     <g id="text_15">
      <!-- −5 -->
      <g transform="translate(31.197813 109.968406) scale(0.1 -0.1)">
       <use xlink:href="#DejaVuSans-2212"/>
       <use xlink:href="#DejaVuSans-35" transform="translate(83.789062 0)"/>
      </g>
     </g>
    </g>
    <g id="ytick_7">
     <g id="line2d_29">
      <path d="M 52.94 79.302885 
L 552.555185 79.302885 
" clip-path="url(#p1066670bb4)" style="fill: none; stroke: #b0b0b0; stroke-width: 0.8; stroke-linecap: square"/>
     </g>
     <g id="line2d_30">
      <g>
       <use xlink:href="#m2928809fa6" x="52.94" y="79.302885" style="stroke: #000000; stroke-width: 0.8"/>
      </g>
     </g>
     <g id="text_16">
      <!-- 0 -->
      <g transform="translate(39.5775 83.102104) scale(0.1 -0.1)">
       <use xlink:href="#DejaVuSans-30"/>
      </g>
     </g>
    </g>
    <g id="ytick_8">
     <g id="line2d_31">
      <path d="M 52.94 52.436583 
L 552.555185 52.436583 
" clip-path="url(#p1066670bb4)" style="fill: none; stroke: #b0b0b0; stroke-width: 0.8; stroke-linecap: square"/>
     </g>
     <g id="line2d_32">
      <g>
       <use xlink:href="#m2928809fa6" x="52.94" y="52.436583" style="stroke: #000000; stroke-width: 0.8"/>
      </g>
     </g>
     <g id="text_17">
      <!-- 5 -->
      <g transform="translate(39.5775 56.235802) scale(0.1 -0.1)">
       <use xlink:href="#DejaVuSans-35"/>
      </g>
     </g>
    </g>
    <g id="text_18">
     <!-- Cum.sum -->
     <g transform="translate(18.755625 160.223281) rotate(-90) scale(0.1 -0.1)">
      <defs>
       <path id="DejaVuSans-43" d="M 4122 4306 
L 4122 3641 
Q 3803 3938 3442 4084 
Q 3081 4231 2675 4231 
Q 1875 4231 1450 3742 
Q 1025 3253 1025 2328 
Q 1025 1406 1450 917 
Q 1875 428 2675 428 
Q 3081 428 3442 575 
Q 3803 722 4122 1019 
L 4122 359 
Q 3791 134 3420 21 
Q 3050 -91 2638 -91 
Q 1578 -91 968 557 
Q 359 1206 359 2328 
Q 359 3453 968 4101 
Q 1578 4750 2638 4750 
Q 3056 4750 3426 4639 
Q 3797 4528 4122 4306 
z
" transform="scale(0.015625)"/>
       <path id="DejaVuSans-75" d="M 544 1381 
L 544 3500 
L 1119 3500 
L 1119 1403 
Q 1119 906 1312 657 
Q 1506 409 1894 409 
Q 2359 409 2629 706 
Q 2900 1003 2900 1516 
L 2900 3500 
L 3475 3500 
L 3475 0 
L 2900 0 
L 2900 538 
Q 2691 219 2414 64 
Q 2138 -91 1772 -91 
Q 1169 -91 856 284 
Q 544 659 544 1381 
z
M 1991 3584 
L 1991 3584 
z
" transform="scale(0.015625)"/>
       <path id="DejaVuSans-6d" d="M 3328 2828 
Q 3544 3216 3844 3400 
Q 4144 3584 4550 3584 
Q 5097 3584 5394 3201 
Q 5691 2819 5691 2113 
L 5691 0 
L 5113 0 
L 5113 2094 
Q 5113 2597 4934 2840 
Q 4756 3084 4391 3084 
Q 3944 3084 3684 2787 
Q 3425 2491 3425 1978 
L 3425 0 
L 2847 0 
L 2847 2094 
Q 2847 2600 2669 2842 
Q 2491 3084 2119 3084 
Q 1678 3084 1418 2786 
Q 1159 2488 1159 1978 
L 1159 0 
L 581 0 
L 581 3500 
L 1159 3500 
L 1159 2956 
Q 1356 3278 1631 3431 
Q 1906 3584 2284 3584 
Q 2666 3584 2933 3390 
Q 3200 3197 3328 2828 
z
" transform="scale(0.015625)"/>
       <path id="DejaVuSans-2e" d="M 684 794 
L 1344 794 
L 1344 0 
L 684 0 
L 684 794 
z
" transform="scale(0.015625)"/>
       <path id="DejaVuSans-73" d="M 2834 3397 
L 2834 2853 
Q 2591 2978 2328 3040 
Q 2066 3103 1784 3103 
Q 1356 3103 1142 2972 
Q 928 2841 928 2578 
Q 928 2378 1081 2264 
Q 1234 2150 1697 2047 
L 1894 2003 
Q 2506 1872 2764 1633 
Q 3022 1394 3022 966 
Q 3022 478 2636 193 
Q 2250 -91 1575 -91 
Q 1294 -91 989 -36 
Q 684 19 347 128 
L 347 722 
Q 666 556 975 473 
Q 1284 391 1588 391 
Q 1994 391 2212 530 
Q 2431 669 2431 922 
Q 2431 1156 2273 1281 
Q 2116 1406 1581 1522 
L 1381 1569 
Q 847 1681 609 1914 
Q 372 2147 372 2553 
Q 372 3047 722 3315 
Q 1072 3584 1716 3584 
Q 2034 3584 2315 3537 
Q 2597 3491 2834 3397 
z
" transform="scale(0.015625)"/>
      </defs>
      <use xlink:href="#DejaVuSans-43"/>
      <use xlink:href="#DejaVuSans-75" transform="translate(69.824219 0)"/>
      <use xlink:href="#DejaVuSans-6d" transform="translate(133.203125 0)"/>
      <use xlink:href="#DejaVuSans-2e" transform="translate(230.615234 0)"/>
      <use xlink:href="#DejaVuSans-73" transform="translate(262.402344 0)"/>
      <use xlink:href="#DejaVuSans-75" transform="translate(314.501953 0)"/>
      <use xlink:href="#DejaVuSans-6d" transform="translate(377.880859 0)"/>
     </g>
    </g>
   </g>
   <g id="line2d_33">
    <path d="M 75.649781 86.84337 
L 77.932171 82.489796 
L 80.214561 92.266042 
L 82.496951 93.999324 
L 84.779341 92.961034 
L 87.061731 90.10287 
L 89.344122 85.402633 
L 91.626512 87.6096 
L 93.908902 92.571202 
L 96.191292 90.008372 
L 98.473682 94.269454 
L 100.756072 103.658023 
L 103.038462 105.355024 
L 105.320852 100.998571 
L 107.603242 101.190513 
L 109.885632 107.414821 
L 112.168022 112.196857 
L 114.450412 119.724631 
L 116.732802 123.816888 
L 119.015192 131.43657 
L 121.297582 122.63698 
L 123.579972 123.006551 
L 125.862363 122.451619 
L 128.144753 116.125834 
L 130.427143 120.134011 
L 132.709533 120.467084 
L 134.991923 118.43749 
L 137.274313 118.568554 
L 139.556703 106.999534 
L 141.839093 107.146271 
L 144.121483 112.05383 
L 146.403873 107.222393 
L 148.686263 104.147019 
L 150.968653 100.375509 
L 153.251043 91.763838 
L 155.533433 96.595713 
L 157.815823 102.243369 
L 160.098214 104.232629 
L 162.380604 104.760475 
L 164.662994 105.504615 
L 166.945384 109.407993 
L 169.227774 106.446 
L 171.510164 110.718393 
L 173.792554 118.819492 
L 176.074944 113.438691 
L 178.357334 121.773425 
L 180.639724 130.670488 
L 182.922114 123.466518 
L 185.204504 128.799732 
L 187.486894 127.222009 
L 189.769284 130.023463 
L 192.051674 128.669634 
L 194.334064 120.22582 
L 196.616455 120.319411 
L 198.898845 122.671309 
L 201.181235 116.877206 
L 203.463625 116.308852 
L 205.746015 123.836671 
L 208.028405 123.895935 
L 210.310795 123.104506 
L 212.593185 128.854463 
L 214.875575 126.207423 
L 217.157965 122.403454 
L 219.440355 114.189237 
L 221.722745 115.523494 
L 224.005135 127.655434 
L 226.287525 126.857297 
L 228.569915 133.471309 
L 230.852305 127.365093 
L 233.134696 131.846458 
L 235.417086 129.026299 
L 237.699476 124.693963 
L 239.981866 122.081281 
L 242.264256 112.744762 
L 244.546646 113.989161 
L 246.829036 107.678821 
L 249.111426 104.111432 
L 251.393816 105.463273 
L 253.676206 114.304943 
L 255.958596 113.052822 
L 258.240986 114.669653 
L 260.523376 118.69466 
L 262.805766 114.124232 
L 265.088156 112.439129 
L 267.370547 122.298435 
L 269.652937 120.121094 
L 274.217717 113.334211 
L 276.500107 104.668927 
L 278.782497 102.087337 
L 281.064887 97.651406 
L 283.347277 97.082427 
L 285.629667 95.416592 
L 287.912057 84.687024 
L 290.194447 78.219487 
L 292.476837 72.272463 
L 294.759227 67.139271 
L 297.041617 78.645719 
L 299.324007 82.515581 
L 301.606397 81.441018 
L 303.888788 86.64917 
L 306.171178 80.670422 
L 308.453568 85.13971 
L 310.735958 73.658365 
L 313.018348 72.601079 
L 315.300738 70.640571 
L 317.583128 72.052951 
L 319.865518 75.760888 
L 322.147908 80.678442 
L 326.712688 81.484167 
L 328.995078 84.028564 
L 331.277468 80.879119 
L 333.559858 75.644135 
L 335.842248 70.927531 
L 338.124639 65.944268 
L 340.407029 66.831261 
L 342.689419 77.208394 
L 344.971809 78.032916 
L 347.254199 77.039283 
L 349.536589 71.47577 
L 351.818979 71.391068 
L 354.101369 78.596217 
L 356.383759 70.249643 
L 358.666149 74.728214 
L 360.948539 61.408069 
L 363.230929 51.982721 
L 365.513319 46.623102 
L 367.795709 47.956322 
L 370.078099 43.497917 
L 372.360489 40.858879 
L 374.64288 36.841818 
L 376.92527 43.519537 
L 379.20766 46.325649 
L 381.49005 45.704796 
L 383.77244 39.06089 
L 386.05483 40.391156 
L 388.33722 45.485602 
L 390.61961 51.207312 
L 392.902 61.10477 
L 395.18439 74.355631 
L 397.46678 83.391673 
L 399.74917 84.055426 
L 402.03156 80.763759 
L 404.31395 80.092147 
L 406.59634 85.82549 
L 408.87873 82.797012 
L 411.161121 82.80006 
L 413.443511 83.316489 
L 415.725901 85.695021 
L 418.008291 80.875621 
L 420.290681 85.71563 
L 422.573071 90.841789 
L 424.855461 88.245863 
L 427.137851 95.625956 
L 429.420241 92.508722 
L 431.702631 95.766557 
L 433.985021 92.365743 
L 436.267411 99.661012 
L 438.549801 110.090166 
L 440.832191 108.786221 
L 443.114581 108.752374 
L 445.396972 112.902358 
L 447.679362 101.932706 
L 449.961752 94.586563 
L 452.244142 95.032148 
L 454.526532 96.773497 
L 456.808922 97.731366 
L 459.091312 100.079919 
L 461.373702 102.892062 
L 463.656092 100.489584 
L 465.938482 98.518024 
L 468.220872 95.804622 
L 470.503262 98.937572 
L 472.785652 91.841966 
L 475.068042 90.289512 
L 477.350432 91.30631 
L 479.632822 102.437879 
L 481.915213 95.98745 
L 484.197603 88.241333 
L 486.479993 87.887071 
L 488.762383 85.739388 
L 491.044773 80.50711 
L 493.327163 86.970929 
L 495.609553 79.718874 
L 497.891943 81.479453 
L 500.174333 82.685094 
L 502.456723 76.354299 
L 504.739113 76.849144 
L 509.303893 63.810017 
L 511.586283 63.902567 
L 513.868673 67.211221 
L 516.151063 67.686207 
L 518.433454 70.345524 
L 520.715844 76.608125 
L 522.998234 87.909128 
L 525.280624 92.694121 
L 527.563014 94.396144 
L 529.845404 92.636527 
L 529.845404 92.636527 
" clip-path="url(#p1066670bb4)" style="fill: none; stroke: #1f77b4; stroke-width: 2; stroke-linecap: square"/>
   </g>
   <g id="line2d_34">
    <path d="M 75.649781 85.831384 
L 77.932171 91.190468 
L 80.214561 96.134245 
L 82.496951 99.01347 
L 84.779341 97.036967 
L 87.061731 88.344047 
L 89.344122 89.959702 
L 91.626512 89.485218 
L 93.908902 92.912697 
L 96.191292 106.25361 
L 98.473682 98.484878 
L 100.756072 96.224581 
L 103.038462 105.092945 
L 105.320852 106.904958 
L 107.603242 103.573416 
L 109.885632 100.993921 
L 112.168022 105.583784 
L 114.450412 112.995501 
L 116.732802 112.209952 
L 119.015192 110.788934 
L 121.297582 103.476387 
L 123.579972 97.235868 
L 125.862363 96.4863 
L 128.144753 96.590039 
L 130.427143 101.872571 
L 132.709533 102.564996 
L 134.991923 97.590701 
L 137.274313 98.392254 
L 139.556703 104.017028 
L 141.839093 112.039773 
L 144.121483 109.055493 
L 146.403873 109.030735 
L 148.686263 108.614252 
L 150.968653 112.092083 
L 153.251043 112.038231 
L 155.533433 113.224631 
L 157.815823 110.069619 
L 160.098214 110.050272 
L 162.380604 111.162131 
L 164.662994 107.124527 
L 166.945384 93.916015 
L 169.227774 96.269242 
L 171.510164 91.241097 
L 173.792554 86.996982 
L 176.074944 86.512715 
L 178.357334 88.854656 
L 180.639724 94.401268 
L 182.922114 89.97212 
L 185.204504 88.645121 
L 187.486894 79.884556 
L 189.769284 83.736151 
L 192.051674 83.09067 
L 194.334064 93.847175 
L 196.616455 92.591964 
L 198.898845 90.769307 
L 201.181235 87.267623 
L 203.463625 92.078814 
L 205.746015 92.738849 
L 208.028405 92.028193 
L 210.310795 95.369816 
L 212.593185 96.259143 
L 214.875575 101.702967 
L 217.157965 97.04085 
L 219.440355 99.827893 
L 221.722745 101.161572 
L 224.005135 103.432258 
L 226.287525 101.956943 
L 228.569915 110.753742 
L 230.852305 113.904597 
L 233.134696 105.993163 
L 235.417086 108.026303 
L 239.981866 96.00894 
L 242.264256 100.271533 
L 244.546646 107.815626 
L 246.829036 112.605356 
L 249.111426 115.135981 
L 251.393816 117.057184 
L 253.676206 108.826771 
L 255.958596 103.97977 
L 258.240986 105.012949 
L 260.523376 111.215052 
L 262.805766 112.217013 
L 265.088156 105.408776 
L 267.370547 115.587205 
L 269.652937 120.279206 
L 271.935327 130.662504 
L 274.217717 138.25704 
L 276.500107 133.898152 
L 278.782497 136.166927 
L 281.064887 137.540126 
L 283.347277 143.256875 
L 285.629667 144.387479 
L 287.912057 152.354162 
L 290.194447 159.174487 
L 292.476837 156.231336 
L 294.759227 155.210349 
L 297.041617 155.28724 
L 299.324007 148.956818 
L 301.606397 143.498017 
L 303.888788 141.192951 
L 306.171178 140.499015 
L 308.453568 136.957821 
L 310.735958 142.372224 
L 313.018348 142.970279 
L 317.583128 155.539655 
L 319.865518 163.886025 
L 322.147908 165.047149 
L 324.430298 166.461862 
L 326.712688 176.491523 
L 328.995078 179.312654 
L 331.277468 171.885919 
L 333.559858 168.532039 
L 335.842248 175.054251 
L 340.407029 184.848011 
L 342.689419 187.739216 
L 344.971809 187.965793 
L 347.254199 193.080841 
L 349.536589 193.479596 
L 351.818979 187.193357 
L 354.101369 183.480369 
L 358.666149 184.338046 
L 360.948539 188.470006 
L 363.230929 195.461665 
L 365.513319 191.858498 
L 367.795709 192.54688 
L 370.078099 185.914678 
L 372.360489 189.215414 
L 374.64288 192.942184 
L 379.20766 193.893379 
L 381.49005 196.507132 
L 383.77244 193.879346 
L 388.33722 196.428606 
L 390.61961 198.976804 
L 392.902 198.346138 
L 395.18439 202.787982 
L 397.46678 195.09443 
L 399.74917 189.926061 
L 402.03156 199.292404 
L 404.31395 201.166347 
L 406.59634 208.083925 
L 408.87873 207.673955 
L 411.161121 209.694889 
L 413.443511 202.438815 
L 415.725901 211.430036 
L 418.008291 206.892347 
L 420.290681 196.962203 
L 422.573071 197.292101 
L 424.855461 201.187786 
L 427.137851 203.051801 
L 429.420241 202.191463 
L 431.702631 198.221354 
L 433.985021 195.277526 
L 436.267411 196.897974 
L 438.549801 199.602151 
L 440.832191 206.395007 
L 445.396972 213.094211 
L 447.679362 219.931294 
L 449.961752 220.643001 
L 452.244142 205.613164 
L 454.526532 202.136257 
L 456.808922 196.349006 
L 459.091312 201.844268 
L 461.373702 208.588191 
L 463.656092 205.781973 
L 465.938482 212.128298 
L 468.220872 221.133258 
L 470.503262 218.116551 
L 472.785652 217.445261 
L 475.068042 210.615793 
L 477.350432 217.79919 
L 479.632822 219.171682 
L 484.197603 230.366665 
L 486.479993 231.037932 
L 488.762383 230.427497 
L 491.044773 233.055256 
L 493.327163 230.736635 
L 495.609553 236.078182 
L 500.174333 232.66038 
L 502.456723 223.807133 
L 504.739113 232.387041 
L 507.021503 232.145315 
L 509.303893 229.781035 
L 511.586283 235.541464 
L 513.868673 234.703479 
L 516.151063 234.936658 
L 518.433454 235.784384 
L 520.715844 229.010769 
L 522.998234 232.321845 
L 525.280624 224.234587 
L 527.563014 224.011741 
L 529.845404 225.422553 
L 529.845404 225.422553 
" clip-path="url(#p1066670bb4)" style="fill: none; stroke: #ff7f0e; stroke-width: 2; stroke-linecap: square"/>
   </g>
   <g id="line2d_35">
    <path d="M 75.649781 71.544656 
L 77.932171 72.347244 
L 80.214561 69.59302 
L 82.496951 65.730964 
L 84.779341 69.218203 
L 87.061731 68.286706 
L 89.344122 66.437109 
L 91.626512 66.694695 
L 93.908902 72.253046 
L 96.191292 71.304808 
L 98.473682 76.447076 
L 100.756072 76.077804 
L 103.038462 72.105684 
L 105.320852 72.884743 
L 107.603242 71.062711 
L 109.885632 64.216988 
L 112.168022 56.760485 
L 114.450412 53.51048 
L 116.732802 45.804235 
L 119.015192 49.251366 
L 121.297582 50.953841 
L 123.579972 52.371207 
L 125.862363 51.116728 
L 128.144753 55.689601 
L 130.427143 60.982259 
L 132.709533 70.199065 
L 134.991923 76.930229 
L 137.274313 71.850907 
L 139.556703 67.997733 
L 141.839093 72.609564 
L 144.121483 67.649632 
L 146.403873 66.562394 
L 148.686263 68.133373 
L 150.968653 69.450174 
L 153.251043 77.532765 
L 155.533433 81.205563 
L 157.815823 85.941581 
L 160.098214 92.202976 
L 162.380604 87.135449 
L 164.662994 79.398796 
L 166.945384 86.580605 
L 169.227774 94.419145 
L 171.510164 86.050556 
L 173.792554 84.32033 
L 176.074944 83.547573 
L 178.357334 88.365048 
L 180.639724 87.989954 
L 182.922114 89.016945 
L 185.204504 91.099266 
L 187.486894 101.956109 
L 189.769284 98.970487 
L 192.051674 102.37769 
L 194.334064 100.014763 
L 196.616455 98.526462 
L 198.898845 99.54853 
L 201.181235 104.176479 
L 203.463625 104.738264 
L 205.746015 104.088507 
L 208.028405 103.675132 
L 210.310795 104.027762 
L 212.593185 99.561921 
L 214.875575 96.909891 
L 217.157965 95.796692 
L 219.440355 106.386078 
L 221.722745 109.76839 
L 224.005135 114.981893 
L 226.287525 116.290595 
L 228.569915 117.898022 
L 230.852305 124.871841 
L 233.134696 121.124043 
L 235.417086 123.670276 
L 237.699476 114.53063 
L 239.981866 115.080296 
L 242.264256 108.555306 
L 244.546646 105.65433 
L 246.829036 102.401861 
L 249.111426 104.97279 
L 251.393816 110.608587 
L 253.676206 113.545564 
L 255.958596 122.232139 
L 258.240986 121.473006 
L 260.523376 122.2033 
L 262.805766 108.08645 
L 265.088156 111.906121 
L 267.370547 113.180797 
L 269.652937 110.951459 
L 271.935327 116.527384 
L 274.217717 121.047708 
L 276.500107 118.022448 
L 278.782497 128.782439 
L 281.064887 135.711184 
L 283.347277 133.593682 
L 285.629667 132.297228 
L 287.912057 126.727629 
L 290.194447 137.262751 
L 292.476837 135.216036 
L 294.759227 135.711961 
L 297.041617 146.418438 
L 299.324007 142.854242 
L 301.606397 144.152537 
L 303.888788 144.327275 
L 306.171178 145.288955 
L 308.453568 155.463512 
L 310.735958 151.280824 
L 313.018348 151.157929 
L 315.300738 159.116968 
L 317.583128 162.465156 
L 319.865518 163.532416 
L 322.147908 166.199422 
L 324.430298 167.825553 
L 326.712688 163.62621 
L 328.995078 163.285462 
L 331.277468 159.323813 
L 333.559858 160.83249 
L 335.842248 161.175148 
L 338.124639 160.292569 
L 340.407029 153.201235 
L 342.689419 148.939985 
L 344.971809 149.783742 
L 347.254199 151.095961 
L 349.536589 152.957124 
L 351.818979 159.217245 
L 354.101369 160.966657 
L 356.383759 169.014853 
L 358.666149 173.486491 
L 360.948539 170.782102 
L 363.230929 165.154227 
L 365.513319 165.326847 
L 367.795709 167.048181 
L 370.078099 170.12724 
L 372.360489 170.439535 
L 374.64288 171.475131 
L 376.92527 168.183734 
L 379.20766 170.62247 
L 381.49005 173.762605 
L 383.77244 170.236427 
L 386.05483 167.485947 
L 388.33722 170.787614 
L 390.61961 166.977699 
L 392.902 169.578718 
L 395.18439 167.905212 
L 397.46678 166.60262 
L 399.74917 160.203638 
L 402.03156 149.235083 
L 404.31395 141.980866 
L 406.59634 130.434371 
L 408.87873 131.040923 
L 411.161121 136.159226 
L 413.443511 138.798441 
L 415.725901 144.632801 
L 418.008291 152.423838 
L 420.290681 135.183669 
L 422.573071 127.992184 
L 427.137851 128.792023 
L 429.420241 126.803473 
L 431.702631 127.057578 
L 433.985021 130.355268 
L 436.267411 128.788005 
L 438.549801 134.432803 
L 440.832191 132.651713 
L 443.114581 133.861332 
L 445.396972 138.115665 
L 447.679362 140.454212 
L 449.961752 136.906329 
L 452.244142 128.716836 
L 454.526532 133.779067 
L 456.808922 133.680092 
L 459.091312 128.118988 
L 461.373702 129.348899 
L 463.656092 119.338962 
L 465.938482 112.967419 
L 468.220872 112.372442 
L 470.503262 106.279954 
L 472.785652 101.56165 
L 475.068042 111.838086 
L 477.350432 108.992154 
L 479.632822 109.942936 
L 481.915213 105.069225 
L 484.197603 107.132335 
L 486.479993 113.716638 
L 488.762383 118.84764 
L 491.044773 117.72941 
L 493.327163 115.513421 
L 495.609553 113.46127 
L 497.891943 123.071321 
L 500.174333 119.385354 
L 502.456723 114.089945 
L 504.739113 114.641952 
L 507.021503 118.329008 
L 509.303893 120.49465 
L 511.586283 122.498384 
L 513.868673 117.304025 
L 516.151063 118.364575 
L 518.433454 118.698595 
L 520.715844 119.363369 
L 522.998234 116.922193 
L 525.280624 107.919026 
L 527.563014 110.719644 
L 529.845404 119.732249 
L 529.845404 119.732249 
" clip-path="url(#p1066670bb4)" style="fill: none; stroke: #2ca02c; stroke-width: 2; stroke-linecap: square"/>
   </g>
   <g id="patch_3">
    <path d="M 52.94 246.04 
L 52.94 26.88 
" style="fill: none; stroke: #000000; stroke-width: 0.8; stroke-linejoin: miter; stroke-linecap: square"/>
   </g>
   <g id="patch_4">
    <path d="M 552.555185 246.04 
L 552.555185 26.88 
" style="fill: none; stroke: #000000; stroke-width: 0.8; stroke-linejoin: miter; stroke-linecap: square"/>
   </g>
   <g id="patch_5">
    <path d="M 52.94 246.04 
L 552.555185 246.04 
" style="fill: none; stroke: #000000; stroke-width: 0.8; stroke-linejoin: miter; stroke-linecap: square"/>
   </g>
   <g id="patch_6">
    <path d="M 52.94 26.88 
L 552.555185 26.88 
" style="fill: none; stroke: #000000; stroke-width: 0.8; stroke-linejoin: miter; stroke-linecap: square"/>
   </g>
   <g id="text_19">
    <!-- random trends -->
    <g transform="translate(258.45728 20.88) scale(0.12 -0.12)">
     <defs>
      <path id="DejaVuSans-72" d="M 2631 2963 
Q 2534 3019 2420 3045 
Q 2306 3072 2169 3072 
Q 1681 3072 1420 2755 
Q 1159 2438 1159 1844 
L 1159 0 
L 581 0 
L 581 3500 
L 1159 3500 
L 1159 2956 
Q 1341 3275 1631 3429 
Q 1922 3584 2338 3584 
Q 2397 3584 2469 3576 
Q 2541 3569 2628 3553 
L 2631 2963 
z
" transform="scale(0.015625)"/>
      <path id="DejaVuSans-6e" d="M 3513 2113 
L 3513 0 
L 2938 0 
L 2938 2094 
Q 2938 2591 2744 2837 
Q 2550 3084 2163 3084 
Q 1697 3084 1428 2787 
Q 1159 2491 1159 1978 
L 1159 0 
L 581 0 
L 581 3500 
L 1159 3500 
L 1159 2956 
Q 1366 3272 1645 3428 
Q 1925 3584 2291 3584 
Q 2894 3584 3203 3211 
Q 3513 2838 3513 2113 
z
" transform="scale(0.015625)"/>
      <path id="DejaVuSans-64" d="M 2906 2969 
L 2906 4863 
L 3481 4863 
L 3481 0 
L 2906 0 
L 2906 525 
Q 2725 213 2448 61 
Q 2172 -91 1784 -91 
Q 1150 -91 751 415 
Q 353 922 353 1747 
Q 353 2572 751 3078 
Q 1150 3584 1784 3584 
Q 2172 3584 2448 3432 
Q 2725 3281 2906 2969 
z
M 947 1747 
Q 947 1113 1208 752 
Q 1469 391 1925 391 
Q 2381 391 2643 752 
Q 2906 1113 2906 1747 
Q 2906 2381 2643 2742 
Q 2381 3103 1925 3103 
Q 1469 3103 1208 2742 
Q 947 2381 947 1747 
z
" transform="scale(0.015625)"/>
      <path id="DejaVuSans-6f" d="M 1959 3097 
Q 1497 3097 1228 2736 
Q 959 2375 959 1747 
Q 959 1119 1226 758 
Q 1494 397 1959 397 
Q 2419 397 2687 759 
Q 2956 1122 2956 1747 
Q 2956 2369 2687 2733 
Q 2419 3097 1959 3097 
z
M 1959 3584 
Q 2709 3584 3137 3096 
Q 3566 2609 3566 1747 
Q 3566 888 3137 398 
Q 2709 -91 1959 -91 
Q 1206 -91 779 398 
Q 353 888 353 1747 
Q 353 2609 779 3096 
Q 1206 3584 1959 3584 
z
" transform="scale(0.015625)"/>
      <path id="DejaVuSans-20" transform="scale(0.015625)"/>
     </defs>
     <use xlink:href="#DejaVuSans-72"/>
     <use xlink:href="#DejaVuSans-61" transform="translate(41.113281 0)"/>
     <use xlink:href="#DejaVuSans-6e" transform="translate(102.392578 0)"/>
     <use xlink:href="#DejaVuSans-64" transform="translate(165.771484 0)"/>
     <use xlink:href="#DejaVuSans-6f" transform="translate(229.248047 0)"/>
     <use xlink:href="#DejaVuSans-6d" transform="translate(290.429688 0)"/>
     <use xlink:href="#DejaVuSans-20" transform="translate(387.841797 0)"/>
     <use xlink:href="#DejaVuSans-74" transform="translate(419.628906 0)"/>
     <use xlink:href="#DejaVuSans-72" transform="translate(458.837891 0)"/>
     <use xlink:href="#DejaVuSans-65" transform="translate(497.701172 0)"/>
     <use xlink:href="#DejaVuSans-6e" transform="translate(559.224609 0)"/>
     <use xlink:href="#DejaVuSans-64" transform="translate(622.603516 0)"/>
     <use xlink:href="#DejaVuSans-73" transform="translate(686.080078 0)"/>
    </g>
   </g>
   <g id="legend_1">
    <g id="patch_7">
     <path d="M 58.771 241.875 
L 100.471761 241.875 
Q 102.137761 241.875 102.137761 240.209 
L 102.137761 204.228606 
Q 102.137761 202.562606 100.471761 202.562606 
L 58.771 202.562606 
Q 57.105 202.562606 57.105 204.228606 
L 57.105 240.209 
Q 57.105 241.875 58.771 241.875 
z
" style="fill: #ffffff; opacity: 0.5; stroke: #cccccc; stroke-linejoin: miter"/>
    </g>
    <g id="line2d_36">
     <path d="M 60.437 209.352858 
L 68.767 209.352858 
L 77.097 209.352858 
" style="fill: none; stroke: #1f77b4; stroke-width: 2; stroke-linecap: square"/>
    </g>
    <g id="text_20">
     <!-- foo -->
     <g transform="translate(83.761 212.268358) scale(0.0833 -0.0833)">
      <defs>
       <path id="DejaVuSansMono-66" d="M 3322 4863 
L 3322 4384 
L 2669 4384 
Q 2359 4384 2239 4257 
Q 2119 4131 2119 3809 
L 2119 3500 
L 3322 3500 
L 3322 3053 
L 2119 3053 
L 2119 0 
L 1544 0 
L 1544 3053 
L 609 3053 
L 609 3500 
L 1544 3500 
L 1544 3744 
Q 1544 4319 1808 4591 
Q 2072 4863 2631 4863 
L 3322 4863 
z
" transform="scale(0.015625)"/>
       <path id="DejaVuSansMono-6f" d="M 1925 3097 
Q 1488 3097 1263 2756 
Q 1038 2416 1038 1747 
Q 1038 1081 1263 739 
Q 1488 397 1925 397 
Q 2366 397 2591 739 
Q 2816 1081 2816 1747 
Q 2816 2416 2591 2756 
Q 2366 3097 1925 3097 
z
M 1925 3584 
Q 2653 3584 3039 3112 
Q 3425 2641 3425 1747 
Q 3425 850 3040 379 
Q 2656 -91 1925 -91 
Q 1197 -91 812 379 
Q 428 850 428 1747 
Q 428 2641 812 3112 
Q 1197 3584 1925 3584 
z
" transform="scale(0.015625)"/>
      </defs>
      <use xlink:href="#DejaVuSansMono-66"/>
      <use xlink:href="#DejaVuSansMono-6f" transform="translate(60.205078 0)"/>
      <use xlink:href="#DejaVuSansMono-6f" transform="translate(120.410156 0)"/>
     </g>
    </g>
    <g id="line2d_37">
     <path d="M 60.437 221.623989 
L 68.767 221.623989 
L 77.097 221.623989 
" style="fill: none; stroke: #ff7f0e; stroke-width: 2; stroke-linecap: square"/>
    </g>
    <g id="text_21">
     <!-- bar -->
     <g transform="translate(83.761 224.539489) scale(0.0833 -0.0833)">
      <defs>
       <path id="DejaVuSansMono-62" d="M 2869 1747 
Q 2869 2416 2656 2756 
Q 2444 3097 2028 3097 
Q 1609 3097 1393 2755 
Q 1178 2413 1178 1747 
Q 1178 1084 1393 740 
Q 1609 397 2028 397 
Q 2444 397 2656 737 
Q 2869 1078 2869 1747 
z
M 1178 3053 
Q 1316 3309 1558 3446 
Q 1800 3584 2119 3584 
Q 2750 3584 3112 3098 
Q 3475 2613 3475 1759 
Q 3475 894 3111 401 
Q 2747 -91 2113 -91 
Q 1800 -91 1561 45 
Q 1322 181 1178 441 
L 1178 0 
L 603 0 
L 603 4863 
L 1178 4863 
L 1178 3053 
z
" transform="scale(0.015625)"/>
       <path id="DejaVuSansMono-61" d="M 2194 1759 
L 2003 1759 
Q 1500 1759 1245 1582 
Q 991 1406 991 1056 
Q 991 741 1181 566 
Q 1372 391 1709 391 
Q 2184 391 2456 720 
Q 2728 1050 2731 1631 
L 2731 1759 
L 2194 1759 
z
M 3309 1997 
L 3309 0 
L 2731 0 
L 2731 519 
Q 2547 206 2267 57 
Q 1988 -91 1588 -91 
Q 1053 -91 734 211 
Q 416 513 416 1019 
Q 416 1603 808 1906 
Q 1200 2209 1959 2209 
L 2731 2209 
L 2731 2300 
Q 2728 2719 2518 2908 
Q 2309 3097 1850 3097 
Q 1556 3097 1256 3012 
Q 956 2928 672 2766 
L 672 3341 
Q 991 3463 1283 3523 
Q 1575 3584 1850 3584 
Q 2284 3584 2592 3456 
Q 2900 3328 3091 3072 
Q 3209 2916 3259 2686 
Q 3309 2456 3309 1997 
z
" transform="scale(0.015625)"/>
       <path id="DejaVuSansMono-72" d="M 3609 2778 
Q 3425 2922 3234 2987 
Q 3044 3053 2816 3053 
Q 2278 3053 1993 2715 
Q 1709 2378 1709 1741 
L 1709 0 
L 1131 0 
L 1131 3500 
L 1709 3500 
L 1709 2816 
Q 1853 3188 2151 3386 
Q 2450 3584 2859 3584 
Q 3072 3584 3256 3531 
Q 3441 3478 3609 3366 
L 3609 2778 
z
" transform="scale(0.015625)"/>
      </defs>
      <use xlink:href="#DejaVuSansMono-62"/>
      <use xlink:href="#DejaVuSansMono-61" transform="translate(60.205078 0)"/>
      <use xlink:href="#DejaVuSansMono-72" transform="translate(120.410156 0)"/>
     </g>
    </g>
    <g id="line2d_38">
     <path d="M 60.437 233.89512 
L 68.767 233.89512 
L 77.097 233.89512 
" style="fill: none; stroke: #2ca02c; stroke-width: 2; stroke-linecap: square"/>
    </g>
    <g id="text_22">
     <!-- baz -->
     <g transform="translate(83.761 236.81062) scale(0.0833 -0.0833)">
      <defs>
       <path id="DejaVuSansMono-7a" d="M 709 3506 
L 3250 3506 
L 3250 2981 
L 1241 469 
L 3250 469 
L 3250 0 
L 634 0 
L 634 531 
L 2644 3047 
L 709 3047 
L 709 3506 
z
" transform="scale(0.015625)"/>
      </defs>
      <use xlink:href="#DejaVuSansMono-62"/>
      <use xlink:href="#DejaVuSansMono-61" transform="translate(60.205078 0)"/>
      <use xlink:href="#DejaVuSansMono-7a" transform="translate(120.410156 0)"/>
     </g>
    </g>
   </g>
  </g>
  <g id="text_23">
   <!-- Acme designs 2015 -->
   <g transform="translate(474.871562 283.040313) scale(0.1 -0.1)">
    <defs>
     <path id="DejaVuSans-41" d="M 2188 4044 
L 1331 1722 
L 3047 1722 
L 2188 4044 
z
M 1831 4666 
L 2547 4666 
L 4325 0 
L 3669 0 
L 3244 1197 
L 1141 1197 
L 716 0 
L 50 0 
L 1831 4666 
z
" transform="scale(0.015625)"/>
     <path id="DejaVuSans-63" d="M 3122 3366 
L 3122 2828 
Q 2878 2963 2633 3030 
Q 2388 3097 2138 3097 
Q 1578 3097 1268 2742 
Q 959 2388 959 1747 
Q 959 1106 1268 751 
Q 1578 397 2138 397 
Q 2388 397 2633 464 
Q 2878 531 3122 666 
L 3122 134 
Q 2881 22 2623 -34 
Q 2366 -91 2075 -91 
Q 1284 -91 818 406 
Q 353 903 353 1747 
Q 353 2603 823 3093 
Q 1294 3584 2113 3584 
Q 2378 3584 2631 3529 
Q 2884 3475 3122 3366 
z
" transform="scale(0.015625)"/>
     <path id="DejaVuSans-69" d="M 603 3500 
L 1178 3500 
L 1178 0 
L 603 0 
L 603 3500 
z
M 603 4863 
L 1178 4863 
L 1178 4134 
L 603 4134 
L 603 4863 
z
" transform="scale(0.015625)"/>
     <path id="DejaVuSans-67" d="M 2906 1791 
Q 2906 2416 2648 2759 
Q 2391 3103 1925 3103 
Q 1463 3103 1205 2759 
Q 947 2416 947 1791 
Q 947 1169 1205 825 
Q 1463 481 1925 481 
Q 2391 481 2648 825 
Q 2906 1169 2906 1791 
z
M 3481 434 
Q 3481 -459 3084 -895 
Q 2688 -1331 1869 -1331 
Q 1566 -1331 1297 -1286 
Q 1028 -1241 775 -1147 
L 775 -588 
Q 1028 -725 1275 -790 
Q 1522 -856 1778 -856 
Q 2344 -856 2625 -561 
Q 2906 -266 2906 331 
L 2906 616 
Q 2728 306 2450 153 
Q 2172 0 1784 0 
Q 1141 0 747 490 
Q 353 981 353 1791 
Q 353 2603 747 3093 
Q 1141 3584 1784 3584 
Q 2172 3584 2450 3431 
Q 2728 3278 2906 2969 
L 2906 3500 
L 3481 3500 
L 3481 434 
z
" transform="scale(0.015625)"/>
    </defs>
    <use xlink:href="#DejaVuSans-41"/>
    <use xlink:href="#DejaVuSans-63" transform="translate(66.658203 0)"/>
    <use xlink:href="#DejaVuSans-6d" transform="translate(121.638672 0)"/>
    <use xlink:href="#DejaVuSans-65" transform="translate(219.050781 0)"/>
    <use xlink:href="#DejaVuSans-20" transform="translate(280.574219 0)"/>
    <use xlink:href="#DejaVuSans-64" transform="translate(312.361328 0)"/>
    <use xlink:href="#DejaVuSans-65" transform="translate(375.837891 0)"/>
    <use xlink:href="#DejaVuSans-73" transform="translate(437.361328 0)"/>
    <use xlink:href="#DejaVuSans-69" transform="translate(489.460938 0)"/>
    <use xlink:href="#DejaVuSans-67" transform="translate(517.244141 0)"/>
    <use xlink:href="#DejaVuSans-6e" transform="translate(580.720703 0)"/>
    <use xlink:href="#DejaVuSans-73" transform="translate(644.099609 0)"/>
    <use xlink:href="#DejaVuSans-20" transform="translate(696.199219 0)"/>
    <use xlink:href="#DejaVuSans-32" transform="translate(727.986328 0)"/>
    <use xlink:href="#DejaVuSans-30" transform="translate(791.609375 0)"/>
    <use xlink:href="#DejaVuSans-31" transform="translate(855.232422 0)"/>
    <use xlink:href="#DejaVuSans-35" transform="translate(918.855469 0)"/>
   </g>
  </g>
 </g>
 <defs>
  <clipPath id="p1066670bb4">
   <rect x="52.94" y="26.88" width="499.615185" height="219.16"/>
  </clipPath>
 </defs>
</svg>
